<svg width="11" height="11" viewBox="0 0 11 11" fill="none" xmlns="http://www.w3.org/2000/svg">
<path d="M8.5046 0.157078C8.18033 0.0482665 7.83928 8.64383e-05 7.49769 8.64383e-05C6.74521 -0.00532705 6.01493 0.243693 5.4135 0.703298C5.36477 0.665945 5.30523 0.632923 5.25109 0.600984C5.19696 0.567961 5.09951 0.4873 5.01831 0.443992L4.8126 0.351963C4.70433 0.292415 4.59119 0.249107 4.47155 0.210671C4.46072 0.200385 4.44448 0.189017 4.42283 0.178732H4.39089C4.07095 0.0699204 3.74073 0.0103721 3.39968 8.64383e-05H3.34013C3.18855 8.64383e-05 3.03752 0.0103721 2.8854 0.0325674H2.82044C2.65803 0.05368 2.49617 0.0915744 2.33918 0.145709C0.319405 0.806696 -0.400589 2.99916 0.211135 4.91553C0.557598 5.89483 1.11573 6.78319 1.84114 7.51347C2.89622 8.5312 4.04984 9.42984 5.28899 10.1986L5.42974 10.2857L5.56507 10.204C6.79989 9.42984 7.94701 8.5312 8.99235 7.51888C9.72263 6.7886 10.2802 5.89483 10.6213 4.91553C11.2227 2.99916 10.5027 0.806696 8.5046 0.157078V0.157078Z" fill="#EC5655"/>
</svg>
