<svg width="25" height="24" viewBox="0 0 25 24" fill="none" xmlns="http://www.w3.org/2000/svg">
<path fill-rule="evenodd" clip-rule="evenodd" d="M7.6353 0.000198088C6.85249 0.000198088 6.07092 0.110611 5.3278 0.359969C0.748779 1.84868 -0.901205 6.87307 0.477091 11.2648C1.25866 13.509 2.53647 15.5572 4.21003 17.2308C6.60561 19.5507 9.23442 21.6101 12.0642 23.3841L12.3744 23.5714L12.6969 23.3717C15.5366 21.6101 18.1803 19.5507 20.5982 17.2184C22.2606 15.5448 23.5397 13.509 24.3337 11.2648C25.7355 6.87307 24.0855 1.84868 19.4569 0.333917C19.0971 0.209858 18.7262 0.123017 18.354 0.0746335H18.2051C17.8565 0.0237693 17.5104 0.000198088 17.163 0.000198088H17.0266C16.245 0.0237693 15.4882 0.160234 14.7551 0.409593H14.6819C14.6322 0.433164 14.595 0.459217 14.5702 0.482788C14.296 0.57087 14.0367 0.670117 13.7886 0.806582L13.3172 1.01748C13.2033 1.07824 13.0754 1.17107 12.9649 1.2513C12.8949 1.30213 12.8319 1.3479 12.7838 1.37725C12.7635 1.3892 12.7429 1.40121 12.7222 1.41332C12.6158 1.47541 12.505 1.5401 12.4116 1.61173C11.0333 0.558464 9.35972 -0.0122078 7.6353 0.000198088ZM4.34083 8.93188C3.83218 8.91823 3.39798 8.51008 3.36076 7.98779V7.84016C3.32354 6.10209 4.3768 4.52778 5.97841 3.91989C6.48705 3.74497 7.04531 4.01914 7.2314 4.54018C7.40509 5.06123 7.13216 5.63191 6.61111 5.81675C5.81589 6.1145 5.28368 6.89731 5.28368 7.76448V7.80294C5.30725 8.08704 5.22165 8.36121 5.04796 8.57211C4.87428 8.78301 4.61376 8.90583 4.34083 8.93188Z" fill="#EC5655"/>
<path fill-rule="evenodd" clip-rule="evenodd" d="M17.1822 0.000198088C17.965 0.000198088 18.7466 0.110611 19.4897 0.359969C24.0687 1.84868 25.7187 6.87307 24.3404 11.2648C23.5588 13.509 22.281 15.5572 20.6075 17.2308C18.2119 19.5507 15.5831 21.6101 12.7533 23.3841L12.4431 23.5714L12.1206 23.3717C9.28088 21.6101 6.63718 19.5507 4.21927 17.2184C2.55688 15.5448 1.27783 13.509 0.483851 11.2648C-0.918017 6.87307 0.731969 1.84868 5.36061 0.333917C5.72038 0.209858 6.09132 0.123017 6.4635 0.0746335H6.61237C6.96098 0.0237693 7.3071 0.000198088 7.65447 0.000198088H7.79093C8.5725 0.0237693 9.32926 0.160234 10.0625 0.409593H10.1356C10.1853 0.433164 10.2225 0.459217 10.2473 0.482788C10.5215 0.57087 10.7808 0.670117 11.0289 0.806582L11.5003 1.01748C11.6142 1.07824 11.7421 1.17107 11.8526 1.2513C11.9226 1.30213 11.9856 1.3479 12.0338 1.37725C12.054 1.3892 12.0746 1.40121 12.0953 1.41331C12.2017 1.47541 12.3125 1.54009 12.4059 1.61173C13.7842 0.558464 15.4578 -0.0122078 17.1822 0.000198088ZM20.4767 8.93188C20.9853 8.91823 21.4195 8.51008 21.4567 7.98779V7.84016C21.494 6.10209 20.4407 4.52778 18.8391 3.91989C18.3305 3.74497 17.7722 4.01914 17.5861 4.54018C17.4124 5.06123 17.6853 5.63191 18.2064 5.81675C19.0016 6.1145 19.5338 6.89731 19.5338 7.76448V7.80294C19.5103 8.08704 19.5959 8.36121 19.7695 8.57211C19.9432 8.78301 20.2037 8.90583 20.4767 8.93188Z" fill="#EC5655"/>
</svg>
