<svg width="20" height="20" viewBox="0 0 20 20" fill="none" xmlns="http://www.w3.org/2000/svg">
<mask id="mask0_1209_157" style="mask-type:luminance" maskUnits="userSpaceOnUse" x="3" y="3" width="15" height="15">
<path fill-rule="evenodd" clip-rule="evenodd" d="M3 3.76733H17.3964V17.4805H3V3.76733Z" fill="white"/>
</mask>
<g mask="url(#mask0_1209_157)">
<path fill-rule="evenodd" clip-rule="evenodd" d="M4.2839 10.1814C5.26979 13.2487 9.16484 15.729 10.2 16.3429C11.2386 15.7226 15.1618 13.215 16.116 10.1842C16.7426 8.22506 16.161 5.74345 13.8503 4.99875C12.7308 4.63942 11.4249 4.85811 10.5234 5.55569C10.335 5.70055 10.0734 5.70336 9.88352 5.55991C8.92857 4.84194 7.68108 4.63168 6.544 4.99875C4.23679 5.74274 3.65734 8.22435 4.2839 10.1814M10.1994 17.4799C10.1122 17.4799 10.0257 17.4588 9.94693 17.4159C9.72683 17.2956 4.5421 14.4378 3.27844 10.5041C3.27774 10.5041 3.27774 10.5034 3.27774 10.5034C2.48452 8.0267 3.36775 4.91431 6.21924 3.99523C7.55814 3.56205 9.01729 3.75262 10.1973 4.49731C11.3407 3.77442 12.8596 3.57471 14.1718 3.99523C17.0261 4.91572 17.9121 8.0274 17.1196 10.5034C15.8967 14.3921 10.674 17.2928 10.4525 17.4145C10.3738 17.4581 10.2866 17.4799 10.1994 17.4799" fill="#B8B8B8"/>
</g>
<path fill-rule="evenodd" clip-rule="evenodd" d="M14.3584 9.12945C14.0862 9.12945 13.8556 8.9206 13.8331 8.64494C13.7867 8.06691 13.3999 7.57888 12.8493 7.40097C12.5715 7.31096 12.4196 7.01351 12.509 6.73715C12.5997 6.46008 12.8943 6.3096 13.1728 6.3968C14.1312 6.70691 14.8028 7.55568 14.8851 8.55915C14.9083 8.84957 14.6924 9.10413 14.402 9.12734C14.3872 9.12875 14.3731 9.12945 14.3584 9.12945" fill="#B8B8B8"/>
</svg>
