<svg width="20" height="20" viewBox="0 0 20 20" fill="none" xmlns="http://www.w3.org/2000/svg">
<path d="M11.3867 4.18872V6.00334" stroke="#B8B8B8" stroke-width="1.34971" stroke-linecap="round" stroke-linejoin="round"/>
<path d="M11.3867 14.3188V15.8365" stroke="#B8B8B8" stroke-width="1.34971" stroke-linecap="round" stroke-linejoin="round"/>
<path d="M11.3867 11.7414V8.12646" stroke="#B8B8B8" stroke-width="1.34971" stroke-linecap="round" stroke-linejoin="round"/>
<path fill-rule="evenodd" clip-rule="evenodd" d="M15.0272 15.9987C16.3935 15.9987 17.5001 14.9058 17.5001 13.5566V11.6126C16.5961 11.6126 15.868 10.8935 15.868 10.0007C15.868 9.1079 16.5961 8.38809 17.5001 8.38809L17.4993 6.44335C17.4993 5.09408 16.3919 4.00122 15.0265 4.00122H4.97697C3.61149 4.00122 2.50409 5.09408 2.50409 6.44335L2.5033 8.45142C3.40737 8.45142 4.13547 9.1079 4.13547 10.0007C4.13547 10.8935 3.40737 11.6126 2.5033 11.6126V13.5566C2.5033 14.9058 3.60992 15.9987 4.97618 15.9987H15.0272Z" stroke="#B8B8B8" stroke-width="1.34971" stroke-linecap="round" stroke-linejoin="round"/>
</svg>
